<?xml version="1.0" standalone="no"?><!DOCTYPE svg PUBLIC "-//W3C//DTD SVG 1.1//EN" "http://www.w3.org/Graphics/SVG/1.1/DTD/svg11.dtd"><svg t="1773390995817" class="icon" viewBox="0 0 1024 1024" version="1.1" xmlns="http://www.w3.org/2000/svg" p-id="11066" xmlns:xlink="http://www.w3.org/1999/xlink" width="200" height="200"><path d="M512 902.4a390.4 390.4 0 1 1 0-780.8 390.4 390.4 0 0 1 0 780.8z m0-64a326.4 326.4 0 1 0 0-652.8 326.4 326.4 0 0 0 0 652.8z" fill="#5A5A68" p-id="11067"></path><path d="M870.4 544a32 32 0 1 1 0-64h102.4a32 32 0 1 1 0 64h-102.4z" fill="#5A5A68" p-id="11068"></path><path d="M512 512m-204.8 0a204.8 204.8 0 1 0 409.6 0 204.8 204.8 0 1 0-409.6 0Z" fill="#5A5A68" p-id="11069"></path><path d="M544 153.6a32 32 0 1 1-64 0V51.2a32 32 0 1 1 64 0v102.4zM480 870.4a32 32 0 1 1 64 0v102.4a32 32 0 1 1-64 0v-102.4zM153.6 480a32 32 0 1 1 0 64H51.2a32 32 0 1 1 0-64h102.4z" fill="#5A5A68" p-id="11070"></path></svg>