<?xml version="1.0" standalone="no"?><!DOCTYPE svg PUBLIC "-//W3C//DTD SVG 1.1//EN" "http://www.w3.org/Graphics/SVG/1.1/DTD/svg11.dtd"><svg t="1773327699777" class="icon" viewBox="0 0 1024 1024" version="1.1" xmlns="http://www.w3.org/2000/svg" p-id="1663" xmlns:xlink="http://www.w3.org/1999/xlink" width="200" height="200"><path d="M657 223H287c-22.1 0-40 17.9-40 40v418c0 22.1 17.9 40 40 40h370c22.1 0 40-17.9 40-40V263c0-22.1-17.9-40-40-40z m10 448c0 11-9 20-20 20H297c-11 0-20-9-20-20V273c0-11 9-20 20-20h350c11 0 20 9 20 20v398z" fill="#333333" p-id="1664"></path><path d="M747 353.8V751c0 11-9 20-20 20H387.8c-6.5 0-12.2 4.1-14.2 10.3-3.2 9.7 4 19.7 14.2 19.7H737c22.1 0 40-17.9 40-40V353.8c0-10.2-10-17.5-19.7-14.2-6.2 2-10.3 7.8-10.3 14.2zM582 384H362c-8.3 0-15-6.7-15-15s6.7-15 15-15h220c8.3 0 15 6.7 15 15s-6.7 15-15 15zM582 482H362c-8.3 0-15-6.7-15-15s6.7-15 15-15h220c8.3 0 15 6.7 15 15s-6.7 15-15 15zM527.7 580H362c-8.3 0-15-6.7-15-15s6.7-15 15-15h165.7c8.3 0 15 6.7 15 15s-6.8 15-15 15z" fill="#333333" p-id="1665"></path></svg>