<?xml version="1.0" standalone="no"?><!DOCTYPE svg PUBLIC "-//W3C//DTD SVG 1.1//EN" "http://www.w3.org/Graphics/SVG/1.1/DTD/svg11.dtd"><svg t="1773468745919" class="icon" viewBox="0 0 1145 1024" version="1.1" xmlns="http://www.w3.org/2000/svg" p-id="8608" xmlns:xlink="http://www.w3.org/1999/xlink" width="223.6328125" height="200"><path d="M457.193964 326.346934h-96.849411l71.597406-126.340887c6.307225-10.523594 2.102408-23.161148-8.432738-29.468374-8.421186-4.216369-21.05874 0-27.377517 8.421185l-84.223408 145.29722h-4.216368l-84.223408-145.29722c-6.307225-10.523594-18.94478-12.626003-29.468374-8.421185-10.535146 6.307225-12.637554 21.05874-8.421186 29.468374l71.597406 126.340887H162.417812c-12.626003 0-21.05874 8.421186-21.05874 21.05874 0 12.626003 8.421186 21.05874 21.05874 21.05874h126.340888v63.17622h-84.223408c-12.626003 0-21.05874 8.421186-21.05874 21.05874 0 12.626003 8.432737 21.05874 21.05874 21.05874h84.223408v126.352439c0 12.626003 8.421186 21.047188 21.058739 21.047189 12.637554 0 21.05874-8.421186 21.05874-21.047189V473.746562h84.223408c12.637554 0 21.05874-8.421186 21.05874-21.05874 0-12.637554-8.421186-21.05874-21.05874-21.05874h-84.223408v-63.176219H457.217067c12.637554 0 21.05874-8.421186 21.05874-21.05874-0.023103-12.626003-8.444289-21.047188-21.081843-21.047189z m0 0" p-id="8609"></path><path d="M1135.232251 566.402707c0-4.216369 0-8.421186-4.216368-12.637554L876.231699 197.903638c-4.204817-6.318777-10.523594-8.421186-16.842372-8.421186H737.264808V63.141565c0-35.798703-27.377517-63.164668-63.17622-63.164668H196.102554c-12.637554 0-21.05874 8.421186-21.05874 21.05874s8.421186 21.05874 21.05874 21.058739h475.883626c12.649106 0 21.05874 8.421186 21.05874 21.05874v503.261143c0 6.307225 2.11396 12.626003 8.421186 14.728411 4.216369 4.204817 8.421186 8.421186 14.739962 8.421186h376.920255v252.670224c0 12.649106-8.421186 21.05874-21.05874 21.05874h-84.223408c0-82.109448-65.278628-147.399628-147.399627-147.399628s-147.399628 65.278628-147.399628 147.399628H423.509221c-12.637554 0-21.05874 8.421186-21.05874 21.05874s8.421186 21.05874 21.05874 21.05874h271.638107c2.102408 0 4.204817 0 6.307226-2.113961 16.842371 61.06226 73.711366 107.384556 141.08085 107.384557 67.392588 0 122.124519-44.208337 141.080851-105.270596h90.553737c35.787151 0 63.164668-27.377517 63.164668-63.187772l-2.102409-275.819821c2.102408 2.090857 0 0 0 0zM842.535404 968.574968c-58.959851 0-105.270596-46.333848-105.270596-105.282148s46.322297-105.282148 105.270596-105.282148c58.959851 0 105.2937 46.333848 105.2937 105.282148s-48.424705 105.282148-105.2937 105.282148z m4.204817-736.975036l227.429771 315.846444H737.264808V231.599932h109.475413z m0 0" p-id="8610"></path><path d="M295.065925 715.893192c-82.109448 0-147.399628 65.278628-147.399628 147.399628H21.336961c-12.637554 0-21.05874 8.421186-21.05874 21.05874s8.421186 21.05874 21.05874 21.05874H153.985074c18.956331 61.06226 73.699814 105.270596 141.080851 105.270596 82.120999 0 147.399628-65.267077 147.399628-147.399628 0-82.109448-67.381037-147.388076-147.399628-147.388076z m0 252.681776c-58.959851 0-105.282148-46.333848-105.282148-105.282148s46.322297-105.282148 105.282148-105.282148c58.959851 0 105.282148 46.333848 105.282148 105.282148s-48.436257 105.282148-105.282148 105.282148z m0 0" p-id="8611"></path></svg>